<svg xmlns="http://www.w3.org/2000/svg" xmlns:xlink="http://www.w3.org/1999/xlink" width="100" height="100" viewBox="0 0 100 100"><g><g transform="translate(50 50) scale(0.69 0.69) rotate(0) translate(-50 -50)" style="fill:#00030c"><svg fill="#00030c" xmlns="http://www.w3.org/2000/svg" xmlns:xlink="http://www.w3.org/1999/xlink" version="1.1" x="0px" y="0px" viewBox="0 0 64 64" style="enable-background:new 0 0 64 64;" xml:space="preserve"><path d="M45.5844574,28.990015c-0.0198212-0.0395222-0.0396423-0.0593452-0.0396423-0.0593452  c-0.4158936-0.8713036-1.4060059-2.9901638-1.7029686-4.4158688c-0.297081-1.3663635-0.8119621-2.7130241-1.7624321-3.7228394  c-0.0198212-0.0198212-0.0396423-0.0198212-0.0594635-0.0396423c-0.2573204-0.2772617-0.4554138-0.5940456-0.5345802-0.9504719  c-0.2574387-0.9901142-0.7326736-3.0891514-0.8514824-4.7327738c-0.1386337-2.0000496-1.6238022-3.5050421-3.7228394-3.8020039  c0,0-1.6436234-1.1683884-2.7921906-1.267375l-0.3366051-2.1386805c0,0,0.6930313-1.0692797,0.7524986-1.7821331  c0,0,0.8514824-0.5743432,0-1.6436229c0,0,0.5742226-2.8118901-2.5347519-3.0891514  c-3.1089725,0.277261-2.53475,3.0891514-2.53475,3.0891514c-0.8514843,1.0692797,0,1.6436229,0,1.6436229  c0.0594654,0.7128534,0.7524967,1.7821331,0.7524967,1.7821331l-0.3366051,2.1386805  c-1.1485672,0.0989866-2.7921906,1.267375-2.7921906,1.267375c-2.0990353,0.2969618-3.5842075,1.8019543-3.7228374,3.8020039  c-0.1188087,1.6436224-0.5940437,3.7426596-0.8514843,4.7327738c-0.0791645,0.3564262-0.2772598,0.6732101-0.5345783,0.9504719  c-0.0198231,0.0198212-0.0396442,0.0198212-0.0594654,0.0396423c-0.95047,1.0098152-1.4653492,2.3564758-1.7624321,3.7228394  c-0.2969608,1.425705-1.287075,3.5445652-1.7029667,4.4158688c0,0-0.0198212,0.0198231-0.0396442,0.0593452  C18.1384029,29.3465614,16.5937672,31.5644073,18.4551868,32c0.6930313,0.1584511,1.108923,0.0396423,1.3663616-0.1979752  c0.1782742-0.1584511,0.2970829-0.3762474,0.3366051-0.5743427c0.1188087-0.3959484,0.0594654-0.7721977,0.0594654-0.7721977  c0.0395222-0.4158916,0.1386299-0.7327957,0.2177963-0.9901142c0.1386299-0.3565464,0.3366051-0.6931515,0.5742226-0.9901142  c2.1981449-2.7921886,3.0298061-4.7327728,3.326889-5.8615189c0.3167839-1.108923,0.7523746-2.1585007,1.2079105-3.2079582  c0.46908-1.0679817,0.6564674-1.8492031,0.7269573-2.3614159c0.0225296-0.1637058,0.2512264-0.1902351,0.3033581-0.0334244  c0.9805889,2.9494591,0.5618229,7.201889,0.2441025,9.391777c-0.1819515,0.7383728-0.3622055,1.4698601-0.544157,2.2082329  c-1.4692097,4.2313366-1.1856346,10.4332981-0.8490696,14.0228672c0.1188087,1.3861847,0.0198212,2.7723656-0.3169041,4.1387291  c-0.7128544,2.7327232-0.4554138,8.8713837-0.3167839,11.4258347c0.0396423,0.7723198-0.1386299,1.5248146-0.4950581,2.1981468  l-0.475235,0.8713036c-0.8911266,1.3860626,0.1583309,1.3860626,0.1583309,1.3860626h2.3367767  c0.475235,0,0.8711834-0.4157715,0.8514824-0.9108276c-0.1386299-3.6831932,0.2969627-6.3962173,0.5147591-7.4456749  c0.0594635-0.316906,0.1782742-0.5742264,0.2970829-0.8713074c0.7326736-1.7822533,0.8514824-5.3268166,0.8713036-6.6733589  c0-0.297081,0.0594654-0.5940437,0.158453-0.8911285c2.9505215-8.4556122,2.8168449-12.7526741,2.8168449-12.7526741H32h0.173317  c0,0-0.1336746,4.2970619,2.8168488,12.7526741c0.0989838,0.2970848,0.1584511,0.5940475,0.1584511,0.8911285  c0.0198212,1.3465424,0.1386299,4.8911057,0.8713036,6.6733589c0.1188087,0.297081,0.2376175,0.5544014,0.2970848,0.8713074  c0.2177963,1.0494576,0.6533852,3.7624817,0.5147552,7.4456749c-0.0196991,0.4950562,0.3762474,0.9108276,0.8514862,0.9108276  h2.3367729c0,0,1.0494576,0,0.1583328-1.3860626l-0.475235-0.8713036c-0.3564262-0.6733322-0.5347023-1.425827-0.4950562-2.1981468  c0.1386299-2.554451,0.3960686-8.6931114-0.3167839-11.4258347c-0.3367271-1.3663635-0.4357147-2.7525444-0.316906-4.1387291  c0.3365669-3.5895691,0.6201401-9.7915306-0.8490715-14.0228672c-0.1819496-0.7383728-0.3622017-1.4698601-0.5441551-2.2082329  c-0.3177223-2.189888-0.7364845-6.442318,0.2441025-9.391777c0.0521317-0.1568108,0.2808304-0.1302814,0.30336,0.0334244  c0.070488,0.5122128,0.2578735,1.2934341,0.7269554,2.3614159c0.4555359,1.0494576,0.8911285,2.0990353,1.2079124,3.2079582  c0.297081,1.128746,1.1287422,3.0693302,3.326889,5.8615189c0.2376175,0.2969627,0.4355927,0.6335678,0.5742226,0.9901142  c0.0791626,0.2573185,0.1782722,0.5742226,0.2177963,0.9901142c0.0396423,0.2376175,0.0594635,0.475235,0.0594635,0.7721977  c0.0395241,0.1980953,0.1583328,0.4158916,0.3366051,0.5743427C44.4358902,32.0396423,44.8517838,32.1584511,45.5448151,32  C47.4062347,31.5644073,45.8615952,29.3465614,45.5844574,28.990015z"></path></svg></g></g></svg>
